<svg xmlns="http://www.w3.org/2000/svg" viewBox="0 0 164.27 299.52"><defs><style>.cls-1{isolation:isolate;}.cls-2{fill:#5a4973;}.cls-3{fill:#311b50;}.cls-4{fill:#f0ecef;}.cls-5{fill:#cabac4;}.cls-6{fill:#ac9ebc;}.cls-7{fill:#d9d0d8;mix-blend-mode:multiply;}.cls-8{fill:#e8e1e6;}.cls-9{fill:#c3b1bd;}.cls-10{fill:#339d9a;}.cls-11{fill:#008481;}.cls-12{fill:#d9ced6;}.cls-13{fill:#80647a;}.cls-14{fill:#d4c8d0;}.cls-15{fill:#372140;}.cls-16{fill:#463250;}.cls-17{fill:#dfd6dd;}.cls-18{fill:#ebe5e9;}.cls-19{fill:#c5b6c1;}.cls-20{fill:#52334c;}.cls-21{fill:#7f6379;}.cls-22{fill:#977e90;}.cls-23{fill:#ab95a5;}.cls-24{fill:#fbc533;}.cls-25{fill:#fab600;}.cls-26{fill:#66b5b3;}</style></defs><title>Asset 2</title><g class="cls-1"><g id="Layer_2" data-name="Layer 2"><g id="Layer_2-2" data-name="Layer 2"><g id="Layer_3" data-name="Layer 3"><path class="cls-2" d="M76.44,115.93l0,0L80,109.9a8.13,8.13,0,0,1,2.4-2.57l12.53-8.66a8,8,0,0,0,2.41-2.57l27.5-48a3.91,3.91,0,0,0,.59-2.07l-.28-7.1a68.52,68.52,0,0,0-5.16-24.32,35.29,35.29,0,0,0-2.44-4.94h2.55a3,3,0,0,1,.45,0h0a1.68,1.68,0,0,1,.32.09,1.66,1.66,0,0,1,.33.15l.15.1a.71.71,0,0,1,.15.15.16.16,0,0,1,.07.07,1.56,1.56,0,0,1,.27.4L124,15.78a70.14,70.14,0,0,1,5.28,24.83l.28,7.26a3.92,3.92,0,0,1-.61,2.11L100.84,99a8.21,8.21,0,0,1-2.46,2.64l-12.79,8.82a8.38,8.38,0,0,0-2.46,2.62l-3.62,6.35H12l2-3.49Z"/><path class="cls-2" d="M108.29,5.78a9.18,9.18,0,0,0-3.94-3h-23a6.45,6.45,0,0,0,.72,1.12L86.77,10l-2.35,1.49L79.89,5.57c-1-1.27-2-3.06-1.27-4.45A2,2,0,0,1,80.51,0h23.84c1.78,0,4.39,2,6.07,4l1.83,2.19h-3.6Z"/><path class="cls-2" d="M10.23,113.76l2.38-4.15a3.54,3.54,0,0,0,.54-2.63l-2.68-8.83A3.57,3.57,0,0,1,11,95.52l28.08-49a8,8,0,0,1,1.78-2.1l8.59-7.27A317.56,317.56,0,0,1,83.19,12.3l1.23-.79L86.77,10l4.44-2.83a5.59,5.59,0,0,1,2.89-1H117a2,2,0,0,1,1.51.58l3,3.42a.71.71,0,0,0-.15-.15l-.15-.1a1.66,1.66,0,0,0-.33-.15,1.68,1.68,0,0,0-.32-.09h0a3,3,0,0,0-.45,0H97.14a5.61,5.61,0,0,0-2.89,1l-4.7,3L87.2,15.16l-1,.62A314.17,314.17,0,0,0,52.5,40.61l-8.59,7.26A7.79,7.79,0,0,0,42.13,50L14.05,99a3.55,3.55,0,0,0-.54,2.64l2.67,8.82a3.46,3.46,0,0,1-.54,2.62L14,115.93l-2,3.49-1.39-1.6A3.5,3.5,0,0,1,10.23,113.76Z"/><path class="cls-3" d="M125.1,38.93l.28,7.1a3.91,3.91,0,0,1-.59,2.07l-27.5,48a8,8,0,0,1-2.41,2.57l-12.53,8.66A8.13,8.13,0,0,0,80,109.9L76.47,116l0,0H14l1.63-2.86a3.46,3.46,0,0,0,.54-2.62l-2.67-8.82A3.55,3.55,0,0,1,14.05,99L42.13,50a7.79,7.79,0,0,1,1.78-2.11l8.59-7.26A314.17,314.17,0,0,1,86.23,15.78l1-.62,2.35-1.49,4.7-3a5.61,5.61,0,0,1,2.89-1H117.5a35.29,35.29,0,0,1,2.44,4.94A68.52,68.52,0,0,1,125.1,38.93Z"/><path class="cls-4" d="M88.1,127.23a1,1,0,0,1-1.24.61L48.73,115a1,1,0,0,1-.61-1.24L66.56,59a1,1,0,0,1,1.23-.62l38.14,12.83a1,1,0,0,1,.61,1.24Z"/><path class="cls-4" d="M88.1,127.23a1,1,0,0,1-1.24.61L48.73,115a1,1,0,0,1-.56-.49.94.94,0,0,1-.05-.75L66.56,59a1,1,0,0,1,1.23-.62l38.14,12.83a1,1,0,0,1,.61,1.24Z"/><path class="cls-5" d="M94.21,88.65,68.27,79.92a.44.44,0,0,0-.56.28.44.44,0,0,0,.28.56l25.94,8.73a.44.44,0,0,0,.56-.28A.45.45,0,0,0,94.21,88.65Z"/><path class="cls-5" d="M93.75,91.41a.45.45,0,0,0-.28-.56L67.53,82.12a.44.44,0,1,0-.28.84l25.93,8.73A.45.45,0,0,0,93.75,91.41Z"/><path class="cls-5" d="M93,93.61a.45.45,0,0,0-.28-.56L66.79,84.32a.44.44,0,0,0-.29.84l25.94,8.73A.45.45,0,0,0,93,93.61Z"/><path class="cls-5" d="M92.27,95.81a.45.45,0,0,0-.29-.56L66.05,86.52a.44.44,0,0,0-.29.84L91.7,96.09A.44.44,0,0,0,92.27,95.81Z"/><path class="cls-5" d="M90.13,100.75,64.2,92a.46.46,0,0,0-.57.28.45.45,0,0,0,.28.57l25.94,8.72a.44.44,0,1,0,.28-.84Z"/><path class="cls-5" d="M89.67,103.52a.44.44,0,0,0-.28-.57L63.45,94.23a.44.44,0,0,0-.56.27.45.45,0,0,0,.28.57l25.94,8.72A.44.44,0,0,0,89.67,103.52Z"/><path class="cls-5" d="M88.93,105.72a.43.43,0,0,0-.28-.56L62.71,96.43a.44.44,0,0,0-.56.28.44.44,0,0,0,.28.56L88.37,106A.44.44,0,0,0,88.93,105.72Z"/><path class="cls-5" d="M87.91,107.36,62,98.63a.44.44,0,0,0-.28.84l25.94,8.73a.44.44,0,0,0,.28-.84Z"/><path class="cls-5" d="M87.45,110.12a.44.44,0,0,0-.28-.56l-25.94-8.73a.44.44,0,0,0-.28.84l25.94,8.73A.44.44,0,0,0,87.45,110.12Z"/><path class="cls-5" d="M86.71,112.32a.44.44,0,0,0-.28-.56L60.49,103a.44.44,0,0,0-.28.84l25.94,8.73A.44.44,0,0,0,86.71,112.32Z"/><path class="cls-6" d="M94.15,80.77a4.1,4.1,0,1,1-2.58-5.19A4.11,4.11,0,0,1,94.15,80.77Zm-.77-.26a3.29,3.29,0,1,0-4.16,2.07A3.28,3.28,0,0,0,93.38,80.51Z"/><path class="cls-6" d="M92.18,80.11a2,2,0,1,1-1.27-2.57A2,2,0,0,1,92.18,80.11Z"/><path class="cls-4" d="M46.55,115.32,66.24,56.79l-1.62-.54a1.86,1.86,0,0,0-2.37,1.18l-18.5,55a1.86,1.86,0,0,0,1.17,2.37ZM62.92,63.39a.75.75,0,1,1-.47-1A.75.75,0,0,1,62.92,63.39ZM55,84.7a.75.75,0,1,1-1,.47A.75.75,0,0,1,55,84.7Zm7-18.32a.75.75,0,0,1-1.43-.48l.23-.68a.75.75,0,0,1,1-.47.74.74,0,0,1,.47,1Zm-1.37,4.07A.75.75,0,1,1,59.12,70a.75.75,0,0,1,1.43.48Zm-1.61,4.78a.75.75,0,0,1-.95.48.76.76,0,0,1-.48-1l.23-.67a.75.75,0,0,1,.95-.47.74.74,0,0,1,.47,1ZM57.67,79a.75.75,0,1,1-1.42-.48l.23-.67a.75.75,0,0,1,1-.48.76.76,0,0,1,.47,1ZM53,93a.75.75,0,0,1-1.42-.48l.22-.67a.75.75,0,0,1,1.43.48ZM51.7,96.75a.75.75,0,0,1-1.43-.48l.23-.68a.75.75,0,0,1,1.43.48Zm-1.38,4.1a.75.75,0,1,1-1.43-.48.75.75,0,0,1,1.43.48Zm-1.6,4.75a.75.75,0,1,1-1.43-.48l.23-.67a.75.75,0,0,1,.95-.47.74.74,0,0,1,.47,1Zm-.78,2.31a.75.75,0,1,1-.47-1A.75.75,0,0,1,47.94,107.91Z"/><path class="cls-7" d="M66.24,56.79,46.55,115.32l40,13.46A2,2,0,0,0,89,127.54l18.44-54.79a2,2,0,0,0-1.24-2.5Z"/><path class="cls-8" d="M79,55.35a1,1,0,0,1,1.29-.5l36.78,16.3a1,1,0,0,1,.5,1.29L94.15,125.3a1,1,0,0,1-1.29.49l-36.78-16.3a1,1,0,0,1-.5-1.29Z"/><path class="cls-9" d="M81.21,66.46l25,11.09a.45.45,0,0,1,.22.59.44.44,0,0,1-.58.22l-25-11.09a.44.44,0,0,1-.23-.58A.44.44,0,0,1,81.21,66.46Z"/><path class="cls-9" d="M79.68,68.81a.45.45,0,0,1,.59-.22l25,11.09a.44.44,0,0,1,.22.58.44.44,0,0,1-.58.23l-25-11.09A.45.45,0,0,1,79.68,68.81Z"/><path class="cls-9" d="M78.74,70.93a.45.45,0,0,1,.59-.22l25,11.09a.44.44,0,0,1-.36.81L79,71.52A.44.44,0,0,1,78.74,70.93Z"/><path class="cls-9" d="M77.8,73.06a.44.44,0,0,1,.58-.23l25,11.09a.44.44,0,1,1-.36.81L78,73.64A.44.44,0,0,1,77.8,73.06Z"/><path class="cls-9" d="M76,78.18l25,11.09a.44.44,0,0,1,.23.58.44.44,0,0,1-.59.23L75.65,79a.45.45,0,0,1-.22-.59A.44.44,0,0,1,76,78.18Z"/><path class="cls-9" d="M74.49,80.53a.44.44,0,0,1,.58-.23l25,11.09a.44.44,0,1,1-.36.81l-25-11.09A.44.44,0,0,1,74.49,80.53Z"/><path class="cls-9" d="M73.55,82.65a.44.44,0,0,1,.58-.22l25,11.09a.44.44,0,0,1,.23.58.45.45,0,0,1-.59.23l-25-11.09A.45.45,0,0,1,73.55,82.65Z"/><path class="cls-9" d="M73.19,84.55l25,11.09a.44.44,0,1,1-.36.81l-25-11.09a.45.45,0,0,1-.22-.59A.44.44,0,0,1,73.19,84.55Z"/><path class="cls-9" d="M71.67,86.9a.43.43,0,0,1,.58-.23l25,11.09a.44.44,0,1,1-.36.81l-25-11.09A.43.43,0,0,1,71.67,86.9Z"/><path class="cls-9" d="M70.72,89a.46.46,0,0,1,.59-.23l25,11.1a.44.44,0,0,1,.22.58.44.44,0,0,1-.58.23L71,89.61A.45.45,0,0,1,70.72,89Z"/><path class="cls-9" d="M68.35,94.37a.45.45,0,0,1,.59-.23l25,11.09a.45.45,0,0,1,.22.59.44.44,0,0,1-.58.22L68.58,95A.44.44,0,0,1,68.35,94.37Z"/><path class="cls-9" d="M67.41,96.49a.45.45,0,0,1,.59-.22l25,11.09a.44.44,0,0,1-.36.81l-25-11.09A.44.44,0,0,1,67.41,96.49Z"/><path class="cls-9" d="M66.47,98.61a.45.45,0,0,1,.59-.22l25,11.09a.44.44,0,0,1-.36.81L66.7,99.2A.44.44,0,0,1,66.47,98.61Z"/><path class="cls-9" d="M65.53,100.74a.44.44,0,0,1,.58-.23l25,11.09a.44.44,0,1,1-.35.81l-25-11.09A.44.44,0,0,1,65.53,100.74Z"/><path class="cls-9" d="M65.17,102.64l25,11.09a.43.43,0,0,1,.23.58.45.45,0,0,1-.59.23l-25-11.09a.45.45,0,0,1-.22-.59A.44.44,0,0,1,65.17,102.64Z"/><path class="cls-4" d="M93.55,57.6a1,1,0,0,1,1.32-.4l35.44,19a1,1,0,0,1,.39,1.33L103.32,128.5a1,1,0,0,1-1.32.39l-35.43-19a1,1,0,0,1-.4-1.32Z"/><path class="cls-5" d="M81.05,94.6l24.1,13a.45.45,0,0,0,.42-.79l-24.1-13a.45.45,0,0,0-.6.18A.43.43,0,0,0,81.05,94.6Z"/><path class="cls-5" d="M82,92a.44.44,0,0,0,.18.6l24.1,13a.44.44,0,1,0,.42-.78l-24.1-13A.43.43,0,0,0,82,92Z"/><path class="cls-5" d="M83.07,89.91a.43.43,0,0,0,.18.6l24.1,13a.43.43,0,0,0,.6-.18.44.44,0,0,0-.18-.6l-24.1-13A.45.45,0,0,0,83.07,89.91Z"/><path class="cls-5" d="M84.17,87.87a.44.44,0,0,0,.18.6l24.1,13a.44.44,0,0,0,.6-.18.43.43,0,0,0-.18-.6l-24.1-13A.43.43,0,0,0,84.17,87.87Z"/><path class="cls-5" d="M87.1,83.35l24.1,13a.45.45,0,0,0,.42-.79l-24.1-13a.45.45,0,0,0-.6.18A.43.43,0,0,0,87.1,83.35Z"/><path class="cls-5" d="M88,80.71a.44.44,0,0,0,.18.6l24.1,13a.45.45,0,0,0,.6-.18.43.43,0,0,0-.18-.6l-24.1-13A.43.43,0,0,0,88,80.71Z"/><path class="cls-5" d="M89.12,78.66a.43.43,0,0,0,.18.6l24.1,13A.43.43,0,0,0,114,92a.44.44,0,0,0-.18-.6l-24.1-13A.44.44,0,0,0,89.12,78.66Z"/><path class="cls-5" d="M90.4,77.22l24.1,13a.45.45,0,0,0,.6-.18.43.43,0,0,0-.18-.6l-24.1-13a.43.43,0,0,0-.6.18A.44.44,0,0,0,90.4,77.22Z"/><path class="cls-5" d="M91.32,74.57a.44.44,0,0,0,.18.6l24.1,13a.43.43,0,0,0,.6-.18.44.44,0,0,0-.18-.6l-24.1-13A.43.43,0,0,0,91.32,74.57Z"/><path class="cls-5" d="M92.42,72.53a.44.44,0,0,0,.18.6l24.1,13a.45.45,0,0,0,.6-.18.43.43,0,0,0-.18-.6L93,72.34A.44.44,0,0,0,92.42,72.53Z"/><path class="cls-6" d="M79.79,102.38a4.09,4.09,0,1,1,1.66,5.55A4.1,4.1,0,0,1,79.79,102.38Zm.71.38A3.29,3.29,0,1,0,85,101.42,3.3,3.3,0,0,0,80.5,102.76Z"/><path class="cls-6" d="M81.61,103.36a2,2,0,1,1,.82,2.75A2,2,0,0,1,81.61,103.36Z"/><path class="cls-10" d="M151.88,90.93,114,142.06a1.69,1.69,0,0,1-2.37.35l-8.75-6.49,40-53.86,8.75,6.49A1.7,1.7,0,0,1,151.88,90.93Z"/><rect class="cls-11" x="86.86" y="104.2" width="67.06" height="6" transform="translate(-37.43 140.04) rotate(-53.44)"/><path class="cls-12" d="M115.38,128.88c-1.17-.52-2.87.16-4,1.66s-1.28,3.32-.44,4.29h0c1.17.51,2.86-.17,4-1.67s1.27-3.31.45-4.29Z"/><path class="cls-11" d="M80.47,109.45,77,114.1a1.93,1.93,0,0,0,0,2.65l3.32,2.46Z"/><path class="cls-4" d="M142.47,85.48l-23.6,31.83a.3.3,0,0,0,0,.42l6.84,5.07a.3.3,0,0,0,.4-.13l23.61-31.82a.32.32,0,0,0,0-.43l-6.84-5.07C142.76,85.27,142.59,85.32,142.47,85.48Z"/><path class="cls-11" d="M114.39,63.71,111,68.35l9.3-3-3.32-2.46A1.94,1.94,0,0,0,114.39,63.71Z"/><polygon class="cls-11" points="110.95 68.36 80.47 109.45 80.3 119.21 98.01 132.35 137.96 78.48 120.25 65.35 110.95 68.36"/><path class="cls-10" d="M114.94,133.17c-1.11,1.5-2.8,2.18-4,1.67l.1.11.2.17c1.16.86,3.1.2,4.34-1.46s1.29-3.71.13-4.57a1.64,1.64,0,0,0-.22-.14l-.13-.07C116.21,129.86,116.05,131.67,114.94,133.17Z"/><path class="cls-5" d="M123.69,113.24l4.9,3.63a.43.43,0,0,0,.56-.18c.15-.21.16-.48,0-.59l-4.9-3.63c-.14-.11-.39,0-.55.19S123.54,113.13,123.69,113.24Z"/><path class="cls-5" d="M128.87,105.7c-.16.22-.17.48,0,.59l4.9,3.63a.42.42,0,0,0,.55-.19c.16-.21.17-.47,0-.58l-4.9-3.63A.42.42,0,0,0,128.87,105.7Z"/><path class="cls-5" d="M134,98.75c-.16.21-.17.47,0,.58l4.9,3.64c.14.11.39,0,.55-.19s.17-.47,0-.58l-4.9-3.64C134.43,98.45,134.18,98.54,134,98.75Z"/><path class="cls-5" d="M139.18,91.79c-.16.22-.16.48,0,.59L144.06,96a.43.43,0,0,0,.56-.18.44.44,0,0,0,0-.59l-4.9-3.63A.43.43,0,0,0,139.18,91.79Z"/><path class="cls-4" d="M39.41,114.31a1.33,1.33,0,0,0,1.37,1.32l23.68-.45a1.34,1.34,0,0,0,1.31-1.37l-.69-36a1.34,1.34,0,0,0-1.37-1.32L40,77a1.36,1.36,0,0,0-1.32,1.37Z"/><path class="cls-5" d="M43.06,107.58l18.81-.36a.45.45,0,0,0,0-.89L43,106.69a.45.45,0,0,0,0,.89Z"/><path class="cls-5" d="M42.56,104.82a.45.45,0,0,0,.46.44l18.8-.36a.45.45,0,1,0,0-.89L43,104.37A.45.45,0,0,0,42.56,104.82Z"/><path class="cls-5" d="M42.52,102.5a.44.44,0,0,0,.45.43l18.81-.36a.44.44,0,1,0,0-.88L43,102.05A.43.43,0,0,0,42.52,102.5Z"/><path class="cls-5" d="M42.48,100.18a.43.43,0,0,0,.45.43l18.8-.36a.44.44,0,1,0,0-.88l-18.81.36A.43.43,0,0,0,42.48,100.18Z"/><path class="cls-5" d="M42.82,94.81l18.8-.36a.45.45,0,1,0,0-.89l-18.8.36a.45.45,0,1,0,0,.89Z"/><path class="cls-5" d="M42.32,92.05a.43.43,0,0,0,.45.43l18.81-.36a.44.44,0,1,0,0-.88l-18.81.36A.44.44,0,0,0,42.32,92.05Z"/><path class="cls-5" d="M42.27,89.73a.45.45,0,0,0,.46.43l18.8-.36a.44.44,0,1,0,0-.88l-18.81.36A.44.44,0,0,0,42.27,89.73Z"/><path class="cls-5" d="M42.68,87.84l18.81-.36a.45.45,0,0,0,0-.89L42.67,87a.45.45,0,0,0-.44.46A.44.44,0,0,0,42.68,87.84Z"/><path class="cls-5" d="M42.19,85.08a.44.44,0,0,0,.45.44l18.8-.36a.45.45,0,1,0,0-.89l-18.81.36A.44.44,0,0,0,42.19,85.08Z"/><path class="cls-5" d="M42.14,82.76a.45.45,0,0,0,.45.44l18.81-.36a.45.45,0,0,0,.43-.46.44.44,0,0,0-.45-.43l-18.8.36A.45.45,0,0,0,42.14,82.76Z"/><path class="cls-13" d="M61.14,78.31a.78.78,0,0,1,.77-.8.79.79,0,0,1,0,1.58A.79.79,0,0,1,61.14,78.31Z"/><path class="cls-13" d="M58.65,78.36a.8.8,0,0,1,.77-.8.79.79,0,1,1-.77.8Z"/><path class="cls-13" d="M56.17,78.41a.79.79,0,1,1,.8.77A.79.79,0,0,1,56.17,78.41Z"/><path class="cls-13" d="M53.69,78.46a.79.79,0,1,1,.8.77A.78.78,0,0,1,53.69,78.46Z"/><path class="cls-13" d="M51.21,78.51a.77.77,0,0,1,.77-.8.79.79,0,1,1-.77.8Z"/><path class="cls-13" d="M48.72,78.55a.79.79,0,0,1,1.58,0,.79.79,0,0,1-1.58,0Z"/><path class="cls-13" d="M46.24,78.6a.79.79,0,1,1,.8.77A.79.79,0,0,1,46.24,78.6Z"/><path class="cls-13" d="M43.76,78.65a.79.79,0,1,1,.8.77A.79.79,0,0,1,43.76,78.65Z"/><path class="cls-13" d="M41.28,78.7a.77.77,0,0,1,.77-.8.79.79,0,1,1-.77.8Z"/><path class="cls-5" d="M61.93,78.8a.5.5,0,0,0,.49-.51l-.06-3a.5.5,0,1,0-1,0l.06,3A.49.49,0,0,0,61.93,78.8Z"/><path class="cls-5" d="M42.07,79.18a.5.5,0,0,0,.49-.51l-.06-3a.5.5,0,1,0-1,0l.06,3A.49.49,0,0,0,42.07,79.18Z"/><path class="cls-5" d="M52,79a.5.5,0,0,0,.49-.51l-.06-3a.5.5,0,0,0-.51-.49.49.49,0,0,0-.48.51l.06,3A.49.49,0,0,0,52,79Z"/><path class="cls-5" d="M47,79.08a.48.48,0,0,0,.48-.5l-.05-3a.5.5,0,0,0-1,0l.06,3A.49.49,0,0,0,47,79.08Z"/><path class="cls-5" d="M57,78.89a.48.48,0,0,0,.48-.5l-.05-3a.5.5,0,0,0-.51-.48.49.49,0,0,0-.49.5l.06,3A.49.49,0,0,0,57,78.89Z"/><path class="cls-5" d="M59.45,78.84a.5.5,0,0,0,.49-.5l-.06-3a.49.49,0,0,0-.51-.48.48.48,0,0,0-.48.5l0,3A.49.49,0,0,0,59.45,78.84Z"/><path class="cls-5" d="M54.48,78.94a.5.5,0,0,0,.49-.51l-.06-3a.5.5,0,0,0-.5-.49.51.51,0,0,0-.49.51l.06,3A.49.49,0,0,0,54.48,78.94Z"/><path class="cls-5" d="M49.52,79a.5.5,0,0,0,.49-.5l-.06-3a.49.49,0,0,0-.51-.48.48.48,0,0,0-.48.5l0,3A.49.49,0,0,0,49.52,79Z"/><path class="cls-5" d="M44.55,79.13a.5.5,0,0,0,.49-.51l-.06-3a.5.5,0,0,0-.5-.49.51.51,0,0,0-.49.51l.06,3A.49.49,0,0,0,44.55,79.13Z"/><path class="cls-14" d="M14.3,124.33c-.68,0-1.23-.79-1.23-1.73s.55-1.72,1.23-1.72,1.21.77,1.21,1.72S15,124.33,14.3,124.33Z"/><path class="cls-3" d="M18.43,119.31H13.09a1.17,1.17,0,0,0-1.17,1.17v2.18c0,1.78,1,3.24,2.28,3.24h4.23v27.74a2.12,2.12,0,0,0,.82,1.7l10.38,8.37a2.18,2.18,0,0,1,.82,1.7v130.3a2,2,0,0,0,2,2h37V164.93a2.31,2.31,0,0,0-.26-1.06l-4.77-8.69a2.12,2.12,0,0,1-.26-1.05V119.31Zm-2.92,3.29c0,.94-.54,1.73-1.21,1.73s-1.23-.79-1.23-1.73.55-1.72,1.23-1.72S15.51,121.65,15.51,122.6Z"/><path class="cls-2" d="M69.13,163.87l-4.77-8.69a2.12,2.12,0,0,1-.26-1.05V119.31h66.24c0,.08,0,29.47,0,34.66a1.16,1.16,0,0,1-.7,1.07c-3.5,1.55-18.81,8.6-19.11,8.74a2.18,2.18,0,0,0-.78.59,2.13,2.13,0,0,0-.51,1.4v131.9H69.39V164.93A2.31,2.31,0,0,0,69.13,163.87Z"/><path class="cls-15" d="M111.81,297.67h8.68a1.84,1.84,0,0,1-1.84,1.85h-7.71a1.85,1.85,0,0,1-1.85-1.85h2.72Z"/><path class="cls-16" d="M111.81,236.12a2.79,2.79,0,0,1,.36-1.41l5.93-9.85a2.65,2.65,0,0,0,.37-1.41v-6.72h15.3v6.72a2.74,2.74,0,0,0,.37,1.41l5.93,9.85a2.69,2.69,0,0,1,.37,1.41v61.55H111.81Z"/><path class="cls-17" d="M118.53,212.24h18.13c.74,0,1.34,1,1.34,2.25s-.6,2.24-1.34,2.24H118.47v-4.49Z"/><path class="cls-16" d="M118.47,212.24V198h13.75c.86,0,1.55,1,1.55,2.19v12.07h-15.3Z"/><path class="cls-3" d="M109.76,164.37a2.18,2.18,0,0,1,.78-.59c.3-.14,15.61-7.19,19.11-8.74a1.16,1.16,0,0,0,.7-1.07c0-5.19,0-34.58,0-34.66h25.33a1.17,1.17,0,0,1,1.17,1.17V154a2,2,0,0,1-.14.73,2.11,2.11,0,0,1-.34.6l-6.76,8.47a2.24,2.24,0,0,0-.47,1.37V295.71a2,2,0,0,1-2,2h-.71V236.12a2.6,2.6,0,0,0-.37-1.41l-5.93-9.85a2.84,2.84,0,0,1-.36-1.41V192.56c0-1.2-.7-2.18-1.56-2.18H120c-.85,0-1.55,1-1.55,2.18v30.89a2.65,2.65,0,0,1-.37,1.41l-5.93,9.85a2.79,2.79,0,0,0-.36,1.41v61.55h-2.56V165.77A2.13,2.13,0,0,1,109.76,164.37Z"/><path class="cls-15" d="M140.07,234.71l-5.93-9.85a2.74,2.74,0,0,1-.37-1.41v-6.72h2.89c.74,0,1.34-1,1.34-2.24s-.6-2.25-1.34-2.25h-2.89V200.17c0-1.2-.69-2.19-1.55-2.19H118.47v-5.42c0-1.2.7-2.18,1.55-2.18h18.2c.86,0,1.56,1,1.56,2.18v30.89a2.84,2.84,0,0,0,.36,1.41l5.93,9.85a2.6,2.6,0,0,1,.37,1.41v61.55h-6V236.12A2.69,2.69,0,0,0,140.07,234.71Z"/><path class="cls-18" d="M135,142.14l2.19-5.37a.17.17,0,0,1,.11-.11.13.13,0,0,1,.13,0l1.52,1.24a.32.32,0,0,1,.06.34l-2.19,5.37a1.21,1.21,0,0,0,0,.88.63.63,0,0,0,.54.44h1.29V144a.19.19,0,0,1,0-.13.08.08,0,0,1,.11,0l2.94,2.4a.17.17,0,0,1,.06.14.16.16,0,0,1-.06.13l-2.94,2.4a.08.08,0,0,1-.11,0,.19.19,0,0,1,0-.13v-.92h-1.29A2.74,2.74,0,0,1,135,146,5.33,5.33,0,0,1,135,142.14Z"/><path class="cls-18" d="M139.6,133.77a.16.16,0,0,1-.06-.13v-4.81a.16.16,0,0,1,.06-.13.08.08,0,0,1,.11,0l.56.46.9-2.22a2.41,2.41,0,0,1,4.72,0l2.44,6a.33.33,0,0,1-.06.35l-1.51,1.23a.15.15,0,0,1-.24-.09l-2.45-6a.55.55,0,0,0-1.08,0l-.9,2.22.56.45a.2.2,0,0,1,0,.14.19.19,0,0,1,0,.13l-2.94,2.4A.08.08,0,0,1,139.6,133.77Z"/><path class="cls-18" d="M145.35,145h4.38a.64.64,0,0,0,.54-.44,1.21,1.21,0,0,0,0-.88l-.65-1.58-.56.46a.11.11,0,0,1-.11,0,.2.2,0,0,1,0-.14v-4.8a.2.2,0,0,1,0-.14.11.11,0,0,1,.11,0l2.94,2.41a.14.14,0,0,1,.06.13.16.16,0,0,1-.06.13l-.56.46.65,1.58a5.33,5.33,0,0,1,0,3.85,2.74,2.74,0,0,1-2.36,1.93h-4.38c-.1,0-.18-.11-.18-.25V145.2C145.17,145.06,145.25,145,145.35,145Z"/><path class="cls-18" d="M41.53,194l2.15-5.37a.22.22,0,0,1,.1-.11.12.12,0,0,1,.13,0l1.49,1.24a.32.32,0,0,1,.06.34l-2.15,5.37a1.21,1.21,0,0,0,0,.88.62.62,0,0,0,.53.44h1.27v-.92a.19.19,0,0,1,0-.13.07.07,0,0,1,.1,0l2.89,2.4a.2.2,0,0,1,.05.14.19.19,0,0,1-.05.13l-2.89,2.4a.07.07,0,0,1-.1,0,.16.16,0,0,1,0-.13v-.92H43.84a2.7,2.7,0,0,1-2.31-1.92A5.35,5.35,0,0,1,41.53,194Z"/><path class="cls-18" d="M46.07,185.65a.14.14,0,0,1-.06-.13v-4.81a.16.16,0,0,1,.06-.13.07.07,0,0,1,.1,0l.55.46.89-2.22a2.69,2.69,0,0,1,2.31-1.92,2.69,2.69,0,0,1,2.31,1.92l2.4,6a.32.32,0,0,1-.06.34l-1.49,1.23c-.08.07-.18,0-.23-.09l-2.4-6a.54.54,0,0,0-1.06,0l-.89,2.22.56.46a.16.16,0,0,1,0,.13.19.19,0,0,1,0,.13l-2.89,2.4A.07.07,0,0,1,46.07,185.65Z"/><path class="cls-18" d="M51.7,196.83H56a.61.61,0,0,0,.52-.44,1.21,1.21,0,0,0,0-.88l-.63-1.58-.55.46a.09.09,0,0,1-.1,0,.17.17,0,0,1-.06-.14v-4.8a.17.17,0,0,1,.06-.14.09.09,0,0,1,.1,0l2.89,2.41a.19.19,0,0,1,0,.26l-.55.46.63,1.58a5.46,5.46,0,0,1,0,3.86A2.7,2.7,0,0,1,56,199.8H51.7c-.09,0-.17-.11-.17-.25v-2.47C51.53,196.94,51.61,196.83,51.7,196.83Z"/><path class="cls-19" d="M16.16,260.25c6.42,0,11.6,7.35,11.6,16.4s-5.18,16.41-11.6,16.41S4.58,285.72,4.58,276.65c0-.56,0-1.12,0-1.67C5.23,266.71,10.16,260.25,16.16,260.25Zm0,22.43c2.37,0,4.26-2.68,4.26-6s-1.89-6-4.26-6c-2,0-3.77,2.06-4.16,4.81a6.78,6.78,0,0,0-.1,1.2C11.9,280,13.81,282.68,16.16,282.68Z"/><path class="cls-20" d="M13.9,276a3,3,0,0,0-.06.66,3.84,3.84,0,0,0,1,2.73,1.87,1.87,0,0,0,1.3.56h0a1.68,1.68,0,0,0,.4-.05l0,0a1.78,1.78,0,0,0,.83-.49s0,0,0,0a2.83,2.83,0,0,0,.32-.36.11.11,0,0,0,0-.07l.12-.18a1.65,1.65,0,0,0,.1-.19l0-.06a4.26,4.26,0,0,0,.39-1.84,4.36,4.36,0,0,0-.39-1.84,3.07,3.07,0,0,0-.64-.88,2,2,0,0,0-.83-.49,1.44,1.44,0,0,0-.47-.06,1.91,1.91,0,0,0-1.3.55A3.65,3.65,0,0,0,13.9,276Z"/><path class="cls-21" d="M16.16,270.64c2.37,0,4.26,2.7,4.26,6s-1.89,6-4.26,6-4.26-2.68-4.26-6a6.78,6.78,0,0,1,.1-1.2C12.39,272.7,14.12,270.64,16.16,270.64Zm-1.3,8.74a1.87,1.87,0,0,0,1.3.56h0a1.68,1.68,0,0,0,.4-.05l0,0a1.78,1.78,0,0,0,.83-.49s0,0,0,0a2.83,2.83,0,0,0,.32-.36.21.21,0,0,0,0-.07l.11-.18a1.65,1.65,0,0,0,.1-.19l0-.06a4.26,4.26,0,0,0,.39-1.84,4.36,4.36,0,0,0-.39-1.84,3.07,3.07,0,0,0-.64-.88,2,2,0,0,0-.83-.49,1.44,1.44,0,0,0-.47-.06,1.91,1.91,0,0,0-1.3.55,3.65,3.65,0,0,0-1,2.06,3,3,0,0,0-.06.66A3.84,3.84,0,0,0,14.86,279.38Z"/><path class="cls-22" d="M17.38,253.88l.73.1c.29.05.57.11.85.18l.71.19c.43.14.86.29,1.29.47l.08,0c.43.2.85.42,1.25.65l.29.17a13,13,0,0,1,1.21.83,3.55,3.55,0,0,0,.31.23c.3.27.62.53.91.81a3.15,3.15,0,0,1,.37.36,11.9,11.9,0,0,1,.86.88c.08.11.2.22.29.33.35.42.69.86,1,1.33l.19.28c.14.2.28.42.4.63s.25.36.36.55l.28.49c.22.39.43.77.62,1.17.07.16.15.31.23.47.25.54.5,1.11.72,1.69.29.75.54,1.52.78,2.32.07.24.12.49.18.72.15.58.29,1.18.41,1.79l.18,1c.06.34.1.69.15,1v0c0,.38.09.77.13,1.16s.05.7.08,1.05,0,.61,0,.91,0,.63,0,.94c0,.92,0,1.81-.13,2.71,0,.35-.07.68-.11,1s-.08.83-.15,1.24l-.09.44c0,.21-.06.4-.11.6-.06.38-.15.79-.24,1.17s-.21.89-.34,1.32c-.05.18-.09.36-.15.54-.18.6-.39,1.21-.61,1.81,0,.09-.09.2-.13.31-.2.47-.39.94-.61,1.4-.09.2-.17.37-.27.55-.19.38-.38.75-.58,1.11-.11.18-.2.36-.3.53s-.24.35-.35.54l-.38.6c-.09.11-.16.22-.24.33-.33.47-.68.92-1,1.35-.09.11-.19.2-.28.3-.28.32-.57.62-.86.91l-.4.38c-.28.24-.55.49-.84.71l-.4.34c-.36.26-.72.51-1.1.74l-.2.13a10.86,10.86,0,0,1-1.36.69,2.66,2.66,0,0,1-.39.16c-.34.14-.67.27-1,.38l-.5.14c-.33.09-.67.16-1,.22l-.47.08a10.84,10.84,0,0,1-1.51.11C7.24,299.52,0,289.29,0,276.65S7.24,253.8,16.16,253.8A12.09,12.09,0,0,1,17.38,253.88Zm-1.22,39.18c6.42,0,11.6-7.34,11.6-16.41s-5.18-16.4-11.6-16.4c-6,0-10.93,6.46-11.53,14.73,0,.55,0,1.11,0,1.67C4.58,285.72,9.76,293.06,16.16,293.06Z"/><path class="cls-23" d="M24,253.8H16.16a12.09,12.09,0,0,1,1.22.08l.73.1c.29.05.57.11.85.18l.71.19c.43.14.86.29,1.29.47l.08,0c.43.2.85.42,1.25.65l.29.17a13,13,0,0,1,1.21.83,3.55,3.55,0,0,0,.31.23c.3.27.62.53.91.81a3.15,3.15,0,0,1,.37.36,11.9,11.9,0,0,1,.86.88c.08.11.2.22.29.33.35.42.69.86,1,1.33l.19.28c.14.2.28.42.4.63s.25.36.36.55l.28.49c.22.39.43.77.62,1.17.07.16.15.31.23.47.25.54.5,1.11.72,1.69.29.75.54,1.52.78,2.32.07.24.12.49.18.72.15.58.29,1.18.41,1.79l.18,1c.06.34.1.69.15,1v0c0,.38.09.77.13,1.16s.05.7.08,1.05,0,.61,0,.91,0,.63,0,.94c0,.92,0,1.81-.13,2.71,0,.35-.07.68-.11,1s-.08.83-.15,1.24l-.09.44c0,.21-.06.4-.11.6-.06.38-.15.79-.24,1.17s-.21.89-.34,1.32c-.05.18-.09.36-.15.54-.18.6-.39,1.21-.61,1.81,0,.09-.09.2-.13.31-.2.47-.39.94-.61,1.4-.09.2-.17.37-.27.55-.19.38-.38.75-.58,1.11-.11.18-.2.36-.3.53s-.24.35-.35.54l-.38.6c-.09.11-.16.22-.24.33-.33.47-.68.92-1,1.35-.09.11-.19.2-.28.3-.28.32-.57.62-.86.91l-.4.38c-.28.24-.55.49-.84.71l-.4.34c-.36.26-.72.51-1.1.74l-.2.13a10.86,10.86,0,0,1-1.36.69,2.66,2.66,0,0,1-.39.16c-.34.14-.67.27-1,.38l-.5.14c-.33.09-.67.16-1,.22l-.47.08a10.84,10.84,0,0,1-1.51.11H24a10.84,10.84,0,0,0,1.51-.11l.45-.08c.35-.06.69-.13,1-.22l.48-.14c.35-.11.69-.24,1-.38a4,4,0,0,0,.39-.16,11.47,11.47,0,0,0,1.35-.69l.2-.13c.37-.23.74-.48,1.09-.74l.41-.34c.28-.22.57-.47.85-.71.12-.13.26-.25.4-.38.29-.29.58-.59.85-.91l.28-.3c.36-.43.71-.88,1-1.35l.22-.33a12.26,12.26,0,0,0,.73-1.14c.11-.17.21-.35.31-.53.2-.36.4-.73.59-1.11.08-.18.18-.35.26-.55.22-.46.42-.93.61-1.4a2.22,2.22,0,0,1,.13-.31c.23-.6.42-1.21.62-1.81,0-.18.09-.36.15-.54s.17-.63.23-.94c0-.13.07-.24.1-.38.1-.38.17-.79.25-1.17s.14-.69.19-1,.12-.83.16-1.24,0-.52.08-.78a1.9,1.9,0,0,0,0-.25c.08-.88.12-1.78.12-2.71,0-.44,0-.88,0-1.32,0-.17,0-.35,0-.53,0-.35,0-.7-.07-1.05s-.08-.79-.13-1.18-.1-.69-.14-1c-.05-.18-.07-.36-.11-.56s-.05-.29-.07-.42c-.13-.61-.27-1.21-.42-1.79,0-.23-.11-.48-.18-.72-.23-.8-.48-1.57-.77-2.32l0,0c-.22-.58-.45-1.12-.71-1.66-.07-.16-.16-.31-.23-.47-.2-.4-.41-.78-.62-1.17-.1-.15-.18-.32-.28-.49-.24-.41-.51-.8-.77-1.18a1.92,1.92,0,0,0-.18-.28c-.33-.47-.68-.91-1-1.33l-.29-.33c-.27-.3-.55-.61-.84-.88-.12-.13-.25-.25-.37-.36-.31-.28-.61-.54-.93-.81l-.29-.23-.12-.08a10.28,10.28,0,0,0-1.11-.75c-.08-.06-.18-.11-.28-.17-.41-.23-.83-.45-1.26-.65l-.08,0a8.59,8.59,0,0,0-1.08-.39l-.19-.08-.72-.19q-.41-.1-.84-.18l-.75-.1a8.92,8.92,0,0,0-.91,0A1.43,1.43,0,0,0,24,253.8Z"/><path class="cls-24" d="M164.27,234.17v63.66a1.69,1.69,0,0,1-1.69,1.69h-10.9V232.46h10.9A1.7,1.7,0,0,1,164.27,234.17Z"/><rect class="cls-25" x="145.68" y="232.46" width="6" height="67.06"/><path class="cls-12" d="M157.56,286.39c-1.25.28-2.2,1.83-2.2,3.71s.95,3.42,2.2,3.71h0c1.25-.3,2.2-1.85,2.2-3.71s-1-3.42-2.2-3.71Z"/><path class="cls-25" d="M118,291.58v5.78c0,1.2.7,2.16,1.55,2.16h4.13Z"/><path class="cls-4" d="M153.47,235.39V275c0,.2.11.35.25.35h8.51c.14,0,.25-.15.25-.35V235.39c0-.19-.11-.34-.25-.34h-8.51C153.58,235.05,153.47,235.2,153.47,235.39Z"/><path class="cls-25" d="M118,234.63v5.78l5.68-7.95H119.5C118.65,232.46,118,233.44,118,234.63Z"/><polygon class="cls-25" points="117.95 240.41 117.95 291.58 123.63 299.52 145.68 299.52 145.68 232.46 123.63 232.46 117.95 240.41"/><path class="cls-25" d="M159.77,290.1c0,1.86-1,3.41-2.2,3.71l.15,0,.26,0c1.45,0,2.62-1.69,2.62-3.75s-1.17-3.76-2.62-3.76l-.26,0-.15,0C158.82,286.68,159.77,288.23,159.77,290.1Z"/><path class="cls-5" d="M154.93,268.88H161c.18,0,.33-.22.33-.48s-.15-.48-.33-.48h-6.1c-.19,0-.34.21-.34.48S154.74,268.88,154.93,268.88Z"/><path class="cls-5" d="M154.59,259.74c0,.26.15.48.34.48H161c.18,0,.33-.22.33-.48s-.15-.48-.33-.48h-6.1C154.74,259.26,154.59,259.47,154.59,259.74Z"/><path class="cls-5" d="M154.59,251.08c0,.26.15.48.34.48H161c.18,0,.33-.22.33-.48s-.15-.48-.33-.48h-6.1C154.74,250.6,154.59,250.82,154.59,251.08Z"/><path class="cls-5" d="M154.59,242.42c0,.27.15.48.34.48H161c.18,0,.33-.21.33-.48s-.15-.48-.33-.48h-6.1C154.74,241.94,154.59,242.16,154.59,242.42Z"/><path class="cls-10" d="M141.11,234.17v63.66a1.69,1.69,0,0,1-1.69,1.69h-10.9V232.46h10.9A1.7,1.7,0,0,1,141.11,234.17Z"/><rect class="cls-11" x="122.52" y="232.46" width="6" height="67.06"/><path class="cls-12" d="M134.4,286.39c-1.25.28-2.2,1.83-2.2,3.71s1,3.42,2.2,3.71h0c1.25-.3,2.2-1.85,2.2-3.71s-1-3.42-2.2-3.71Z"/><path class="cls-11" d="M94.79,291.58v5.78c0,1.2.7,2.16,1.55,2.16h4.13Z"/><path class="cls-4" d="M130.31,235.39V275c0,.2.11.35.25.35h8.51c.14,0,.25-.15.25-.35V235.39c0-.19-.11-.34-.25-.34h-8.51C130.42,235.05,130.31,235.2,130.31,235.39Z"/><path class="cls-11" d="M94.79,234.63v5.78l5.68-7.95H96.34C95.49,232.46,94.79,233.44,94.79,234.63Z"/><polygon class="cls-11" points="94.79 240.41 94.79 291.58 100.47 299.52 122.52 299.52 122.52 232.46 100.47 232.46 94.79 240.41"/><path class="cls-26" d="M136.61,290.1c0,1.86-1,3.41-2.2,3.71l.15,0,.26,0c1.45,0,2.62-1.69,2.62-3.75s-1.17-3.76-2.62-3.76l-.26,0-.15,0C135.66,286.68,136.61,288.23,136.61,290.1Z"/><path class="cls-5" d="M131.77,268.88h6.1c.18,0,.33-.22.33-.48s-.15-.48-.33-.48h-6.1c-.19,0-.34.21-.34.48S131.58,268.88,131.77,268.88Z"/><path class="cls-5" d="M131.43,259.74c0,.26.15.48.34.48h6.1c.18,0,.33-.22.33-.48s-.15-.48-.33-.48h-6.1C131.58,259.26,131.43,259.47,131.43,259.74Z"/><path class="cls-5" d="M131.43,251.08c0,.26.15.48.34.48h6.1c.18,0,.33-.22.33-.48s-.15-.48-.33-.48h-6.1C131.58,250.6,131.43,250.82,131.43,251.08Z"/><path class="cls-5" d="M131.43,242.42c0,.27.15.48.34.48h6.1c.18,0,.33-.21.33-.48s-.15-.48-.33-.48h-6.1C131.58,241.94,131.43,242.16,131.43,242.42Z"/></g></g></g></g></svg>